<?xml version="1.0" encoding="utf-8"?>
<!-- Generator: Adobe Illustrator 15.1.0, SVG Export Plug-In . SVG Version: 6.00 Build 0)  -->
<!DOCTYPE svg PUBLIC "-//W3C//DTD SVG 1.1//EN" "http://www.w3.org/Graphics/SVG/1.1/DTD/svg11.dtd">
<svg version="1.1" id="Layer_1" xmlns="http://www.w3.org/2000/svg" xmlns:xlink="http://www.w3.org/1999/xlink" x="0px" y="0px"
	 width="795px" height="219px" viewBox="0 0 795 219" enable-background="new 0 0 795 219" xml:space="preserve">
<polygon fill="#002D44" points="760.705,131.5 85.626,131.5 66.597,62.5 741.678,62.5 "/>
<linearGradient id="SVGID_1_" gradientUnits="userSpaceOnUse" x1="408.1748" y1="55.5" x2="408.1748" y2="124.5005">
	<stop  offset="0" style="stop-color:#9C525E"/>
	<stop  offset="0.0327" style="stop-color:#AD626A"/>
	<stop  offset="0.1131" style="stop-color:#D38B8B"/>
	<stop  offset="0.1764" style="stop-color:#EBA8A3"/>
	<stop  offset="0.2143" style="stop-color:#F3B3AC"/>
	<stop  offset="0.2475" style="stop-color:#EC9A98"/>
	<stop  offset="0.2875" style="stop-color:#E68487"/>
	<stop  offset="0.3301" style="stop-color:#E2757C"/>
	<stop  offset="0.3766" style="stop-color:#DF6C76"/>
	<stop  offset="0.4345" style="stop-color:#DF6975"/>
	<stop  offset="0.4623" style="stop-color:#DF6975"/>
	<stop  offset="0.631" style="stop-color:#DF6975"/>
	<stop  offset="0.6499" style="stop-color:#DB6873"/>
	<stop  offset="0.8844" style="stop-color:#AE5864"/>
	<stop  offset="1" style="stop-color:#9C525E"/>
</linearGradient>
<polygon fill="url(#SVGID_1_)" points="749.892,124.5 85.193,124.5 66.457,55.5 731.156,55.5 "/>
<g>
	<path fill="#010201" d="M74.48,192.604c-10.75,0-26.041-8.812-28.56-19.095c-1.077-4.396-0.281-10.72,9.63-15.888
		c6.426-3.35,13.443-5.048,20.857-5.048c10.35,0,19.03,3.26,23.693,5.449L41.716,36.659l69.896-20.583l-1.786,36.673L73.18,69.681
		l44.727,95.098l0.032,0.158c0.055,0.27,1.286,6.686-3.842,13.368c-6.368,8.298-19.286,13.097-38.395,14.262
		C75.3,192.592,74.893,192.604,74.48,192.604z"/>
	<g>
		<path fill="#FFFFFF" d="M110.179,17.896c-1.131,23.224-1.654,33.975-1.654,33.975L71.39,69.029l45.234,96.176
			c0,0,4.729,23.233-41.003,26.022c-0.375,0.022-0.755,0.034-1.141,0.034c-16.449,0-41.215-20.507-18.31-32.45
			c6.949-3.622,13.896-4.896,20.237-4.896c15.047,0.001,26.661,7.181,26.661,7.181L43.611,37.5L110.179,17.896 M113.044,14.254
			l-3.624,1.067L42.853,34.925l-3.03,0.893l1.369,2.847l56.146,116.709c-5.07-2.006-12.458-4.142-20.929-4.143
			c-7.631,0-14.857,1.749-21.478,5.2c-11.247,5.864-11.29,13.417-10.314,17.397c2.73,11.145,18.57,20.118,29.864,20.118
			c0.439,0,0.878-0.013,1.304-0.039c19.515-1.19,32.763-6.164,39.378-14.784c5.496-7.162,4.152-14.159,4.092-14.453l-0.064-0.316
			l-0.137-0.291L74.97,70.333l34.681-16.024l1.477-0.682l0.079-1.625l1.654-33.975L113.044,14.254L113.044,14.254z"/>
	</g>
</g>
<g>
	<g>
		<path fill="#010201" d="M112.361,152.693l7.612-25.851l23.673,6.969l-7.61,25.854L112.361,152.693z M124.077,118.72l1.687-5.257
			c2.795-9.496,5.448-15.778,8.101-19.173c2.682-3.439,7.603-6.745,15.042-10.103c6.924-3.117,11.975-6.069,15.013-8.777
			c2.944-2.625,5.188-6.507,6.67-11.539c1.673-5.681,1.557-10.403-0.345-14.036c-1.923-3.668-5.209-6.144-10.047-7.568
			c-1.883-0.554-3.708-0.835-5.424-0.835c-8.528,0-15.374,7.073-20.349,21.022l-0.517,1.451l-19.735-10.269l0.444-1.125
			c8.283-21,21.097-31.648,38.084-31.648c4.522,0,9.409,0.764,14.524,2.27c11.71,3.447,20.125,9.586,25.009,18.245
			c4.891,8.672,5.697,18.76,2.395,29.981c-1.643,5.579-4.48,10.859-8.434,15.693c-3.973,4.871-11.349,9.61-21.923,14.086
			c-6.903,2.939-11.354,5.51-13.227,7.64c-1.874,2.133-3.45,5.345-4.686,9.545l-1.765,6.435L124.077,118.72z"/>
		<path fill="#FFFFFF" d="M152.699,22.207c4.415,0,9.129,0.738,14.145,2.215c11.415,3.36,19.489,9.232,24.219,17.617
			c4.728,8.383,5.487,18.029,2.276,28.942c-1.599,5.429-4.324,10.501-8.186,15.223c-3.855,4.727-10.995,9.292-21.407,13.699
			c-7.134,3.038-11.701,5.704-13.711,7.989c-2.009,2.287-3.668,5.641-4.966,10.053l-1.41,5.14l-17.884-5.265l1.267-3.947
			c2.729-9.271,5.355-15.525,7.88-18.757c2.521-3.233,7.364-6.468,14.536-9.705c7.084-3.188,12.204-6.191,15.354-8.999
			c3.15-2.809,5.504-6.862,7.064-12.161c1.783-6.056,1.636-11.066-0.443-15.038c-2.08-3.969-5.699-6.715-10.856-8.233
			c-2.015-0.593-3.951-0.89-5.804-0.89c-9.2,0-16.403,7.304-21.613,21.914l-17.296-8.999
			C123.962,32.474,136.24,22.207,152.699,22.207 M120.882,128.51l21.098,6.21l-6.853,23.278l-21.099-6.213L120.882,128.51
			 M152.699,19.522c-17.594,0-30.827,10.934-39.333,32.498l-0.887,2.25l2.146,1.116l17.296,8.999l2.733,1.422l1.035-2.902
			c4.764-13.358,11.185-20.131,19.084-20.131c1.588,0,3.286,0.263,5.046,0.78c4.47,1.316,7.491,3.575,9.236,6.904
			c1.734,3.313,1.817,7.698,0.246,13.034c-1.41,4.788-3.521,8.46-6.276,10.916c-2.935,2.617-7.871,5.495-14.669,8.555
			c-7.645,3.451-12.731,6.886-15.551,10.502c-2.753,3.525-5.479,9.944-8.329,19.619L123.219,117l-0.84,2.619l2.638,0.776
			l17.884,5.265l2.624,0.772l0.724-2.638l1.41-5.14c1.167-3.964,2.649-7.005,4.394-8.991c1.194-1.358,4.376-3.727,12.746-7.291
			c10.924-4.624,18.265-9.358,22.436-14.472c4.066-4.971,6.987-10.41,8.681-16.161c3.408-11.583,2.563-22.019-2.513-31.02
			c-5.062-8.974-13.742-15.324-25.799-18.874C162.363,20.304,157.349,19.522,152.699,19.522L152.699,19.522z M119.065,125.177
			l-0.758,2.575l-6.854,23.275l-0.758,2.575l2.575,0.758l21.099,6.213l2.576,0.759l0.758-2.576l6.853-23.278l0.758-2.575
			l-2.576-0.758l-21.098-6.21L119.065,125.177L119.065,125.177z"/>
	</g>
</g>
<g>
	<g>
		<path stroke="#FFFFFF" stroke-width="2.1876" stroke-miterlimit="10" d="M206.886,78.355v1.347c0,3.756-0.064,6.875-0.192,9.358
			c-0.128,2.483-0.6,5.122-1.416,7.916s-2.093,5.4-3.834,7.819s-3.742,4.494-6.005,6.226c-2.263,1.73-4.897,3.119-7.901,4.163
			l-2.364-6.651c5.442-2.107,9.129-5.103,11.062-8.987c1.933-3.884,2.899-9.188,2.899-15.913l-0.055-5.277H206.886z M227.279,70.77
			c-0.202,1.521-0.972,3.962-2.309,7.324c-1.338,3.362-3.367,6.678-6.088,9.949c-2.721,3.271-5.346,5.785-7.874,7.544l-4.232-5.689
			c2.364-1.576,4.617-3.673,6.761-6.294c2.144-2.62,3.82-5.231,5.03-7.833h-33.118v-7.091h39.769L227.279,70.77z"/>
		<path stroke="#FFFFFF" stroke-width="2.1876" stroke-miterlimit="10" d="M270.923,111.857h-40.951v-7.833h40.951V111.857z
			 M268.394,80.499h-35.398v-7.531h35.398V80.499z"/>
		<path stroke="#FFFFFF" stroke-width="2.1876" stroke-miterlimit="10" d="M310.801,67.609c-1.118,8.428-3.473,16.188-7.063,23.278
			c3.554,3.17,7.237,6.844,11.048,11.021l-5.057,6.349c-2.144-2.931-5.451-6.486-9.921-10.664
			c-5.497,8.483-12.377,14.31-20.64,17.479l-4.178-6.815c3.225-1.227,6.495-3.183,9.812-5.868c3.316-2.684,6.101-5.978,8.355-9.88
			c-2.254-2.125-6.477-5.561-12.67-10.306l3.875-5.854c4.855,3.426,9.042,6.66,12.56,9.702c3.078-6.339,5.039-12.808,5.881-19.403
			L310.801,67.609z"/>
		<path stroke="#FFFFFF" stroke-width="2.1876" stroke-miterlimit="10" d="M357.249,108.367l-2.638,7.42
			c-10.334-4.195-22.097-6.916-35.289-8.162l1.154-7.256c6.468,0.385,12.542,1.223,18.222,2.515
			C344.377,104.176,350.561,106.003,357.249,108.367z M356.396,74.095l-2.336,7.311c-9.271-3.169-19.605-5.459-31.001-6.871
			l1.154-6.926C334.565,68.69,345.293,70.852,356.396,74.095z M352.576,89.128l-1.924,7.311c-7.714-2.749-16.692-4.718-26.934-5.909
			l1.099-7.036C335.133,84.686,344.386,86.563,352.576,89.128z"/>
		<path stroke="#FFFFFF" stroke-width="2.1876" stroke-miterlimit="10" d="M396.385,113.479H359.64v-6.128h20.036l2.474-23.416
			h-17.947V77.86h25.367l-3.051,29.49h9.867V113.479z"/>
		<path stroke="#FFFFFF" stroke-width="2.1876" stroke-miterlimit="10" d="M442.97,94.955h-40.401v-7.311h40.401V94.955z"/>
		<path stroke="#FFFFFF" stroke-width="2.1876" stroke-miterlimit="10" d="M472.35,88.276l-2.996,6.926
			c-3.262-1.777-5.941-3.115-8.039-4.013c-2.098-0.897-5.602-2.208-10.512-3.93l2.528-6.486c3.06,0.788,5.845,1.681,8.354,2.68
			S467.75,86.06,472.35,88.276z M492.027,86.133c-3.664,8.667-8.543,15.299-14.635,19.898c-6.092,4.599-13.416,7.403-21.973,8.411
			l-2.199-7.366c7.256-0.971,13.499-3.252,18.73-6.843c5.23-3.591,9.725-9.455,13.48-17.59L492.027,86.133z M476.609,74.81
			l-3.105,6.871c-1.594-0.897-3.243-1.786-4.947-2.666c-1.703-0.879-3.088-1.529-4.15-1.951l-9.234-3.71l2.557-6.349
			C462.418,68.305,468.713,70.907,476.609,74.81z M484.359,77.255l-3.93,1.402c-1.081-2.657-2.354-5.396-3.82-8.218l3.875-1.401
			C482.189,72.318,483.48,75.057,484.359,77.255z M492.633,76.458l-3.931,1.457c-1.374-3.39-2.593-6.147-3.655-8.272l3.766-1.402
			C490.076,70.641,491.35,73.38,492.633,76.458z"/>
		<path stroke="#FFFFFF" stroke-width="2.1876" stroke-miterlimit="10" d="M507.501,95.642l-6.376,2.199
			c-1.264-5.735-3.216-11.754-5.854-18.057l5.854-2.418c0.842,1.998,1.662,4.054,2.459,6.17
			C504.382,85.652,505.688,89.688,507.501,95.642z M529.982,77.063c-0.788,11.525-3.362,20.42-7.723,26.687
			c-4.36,6.267-10.719,10.096-19.074,11.489l-2.583-5.745c7.256-1.319,12.679-4.612,16.271-9.88
			c3.591-5.268,5.717-13.022,6.376-23.265L529.982,77.063z M517.862,92.949l-6.046,2.363c-1.246-5.625-3.216-11.689-5.909-18.194
			l5.497-2.418c1.392,3.133,2.367,5.487,2.927,7.063C514.89,83.339,516.066,87.067,517.862,92.949z"/>
		<path stroke="#FFFFFF" stroke-width="2.1876" stroke-miterlimit="10" d="M574.562,71.264l-0.302,5.249
			c-0.605,10.279-3.399,18.584-8.383,24.914c-4.984,6.331-12.478,10.879-22.481,13.645l-2.144-7.337
			c6.907-1.667,12.463-4.819,16.668-9.455c4.205-4.635,6.968-11.259,8.287-19.871h-13.303c-3.737,7.476-8.63,13.431-14.676,17.864
			l-4.837-5.799c8.208-6.431,13.613-14.933,16.215-25.505l7.723,0.962c-0.55,2.089-1.063,3.866-1.539,5.332H574.562z"/>
		<path stroke="#FFFFFF" stroke-width="2.1876" stroke-miterlimit="10" d="M620.047,71.264l-0.302,5.249
			c-0.605,10.279-3.399,18.584-8.383,24.914c-4.984,6.331-12.478,10.879-22.481,13.645l-2.144-7.337
			c6.907-1.667,12.463-4.819,16.668-9.455c4.205-4.635,6.968-11.259,8.287-19.871H598.39c-3.737,7.476-8.63,13.431-14.676,17.864
			l-4.837-5.799c8.208-6.431,13.613-14.933,16.215-25.505l7.723,0.962c-0.55,2.089-1.063,3.866-1.539,5.332H620.047z"/>
		<path stroke="#FFFFFF" stroke-width="2.1876" stroke-miterlimit="10" d="M652.808,114.715h-7.86V89.788
			c-5.46,3.5-11.553,6.257-18.276,8.272l-2.007-7.201c7.732-2.309,14.516-5.707,20.352-10.196
			c5.836-4.489,10.293-9.647,13.371-15.474l7.118,3.051c-2.291,4.232-4.416,7.521-6.376,9.867c-1.961,2.346-4.067,4.489-6.321,6.431
			V114.715z"/>
		<path stroke="#FFFFFF" stroke-width="2.1876" stroke-miterlimit="10" d="M713.299,109.274l-5.965,5.909
			c-2.418-3.536-7.09-9.298-14.017-17.287c-6.339,7.86-12.844,13.678-19.513,17.452l-4.865-6.486
			c6.12-3.481,11.635-8.02,16.546-13.618c4.91-5.597,8.501-11.887,10.773-18.868l-21.438-0.027v-7.201h28.886l1.813,2.171
			c-0.972,4.672-2.07,8.497-3.298,11.475s-2.776,6.06-4.645,9.248C703.825,98.473,709.065,104.217,713.299,109.274z M711.787,71.841
			l-3.931,1.401c-1.081-2.656-2.354-5.396-3.82-8.217l3.875-1.402C709.615,66.904,710.907,69.643,711.787,71.841z M720.06,71.044
			l-3.931,1.457c-1.374-3.39-2.593-6.147-3.655-8.273l3.766-1.401C717.503,65.227,718.776,67.966,720.06,71.044z"/>
	</g>
</g>
<g>
	<path fill="#FFFFFF" d="M144.761,188.599l24.125-48.805h0.719l23.602,48.805h-11.817l-3.003-6.888H159.19l-3.068,6.888H144.761z
		 M162.455,173.549h12.438l-6.137-14.82L162.455,173.549z"/>
	<path fill="#FFFFFF" d="M205.579,188.599h-10.218v-29.413h9.434v4.93c1.567-1.938,3.232-3.379,4.995-4.326
		c1.763-0.946,3.678-1.42,5.746-1.42c3.112,0,5.473,0.893,7.084,2.677c1.61,1.785,2.416,4.396,2.416,7.835v19.718h-10.153v-16.845
		c0-1.545-0.315-2.71-0.947-3.493s-1.567-1.175-2.807-1.175c-1.785,0-3.156,0.599-4.113,1.795c-0.958,1.197-1.437,2.938-1.437,5.224
		V188.599z"/>
	<path fill="#FFFFFF" d="M231.793,148.217c0-1.567,0.544-2.895,1.632-3.982c1.088-1.088,2.416-1.633,3.983-1.633
		c1.588,0,2.921,0.539,3.999,1.616c1.077,1.077,1.616,2.41,1.616,3.999c0,1.566-0.544,2.905-1.632,4.016
		c-1.088,1.109-2.416,1.664-3.982,1.664c-1.524,0-2.84-0.56-3.95-1.681S231.793,149.763,231.793,148.217z M242.631,188.599h-10.349
		v-29.413l10.349-1.404V188.599z"/>
	<path fill="#FFFFFF" d="M279.879,188.599h-10.218v-16.845c0-1.502-0.321-2.655-0.963-3.461c-0.642-0.805-1.551-1.207-2.726-1.207
		c-1.676,0-2.987,0.609-3.934,1.828s-1.42,2.949-1.42,5.19v14.494h-10.218v-29.413h9.5v4.93c1.697-2.003,3.379-3.461,5.044-4.375
		c1.665-0.914,3.477-1.371,5.435-1.371c2.155,0,3.934,0.446,5.337,1.339c1.404,0.893,2.596,2.317,3.575,4.276
		c1.437-1.872,3.008-3.275,4.717-4.211c1.708-0.936,3.563-1.404,5.566-1.404c3.265,0,5.675,0.92,7.231,2.759
		c1.556,1.839,2.334,4.685,2.334,8.536v18.935h-10.218v-16.845c0-1.502-0.321-2.655-0.963-3.461
		c-0.643-0.805-1.551-1.207-2.726-1.207c-1.698,0-3.015,0.609-3.95,1.828c-0.937,1.219-1.404,2.949-1.404,5.19V188.599z"/>
	<path fill="#FFFFFF" d="M334.103,178.087l-1.143,9.043c-2.002,0.958-3.972,1.665-5.909,2.122s-3.896,0.686-5.876,0.686
		c-4.897,0-8.847-1.409-11.85-4.228c-3.003-2.818-4.505-6.491-4.505-11.019c0-4.722,1.643-8.71,4.93-11.964
		c3.286-3.253,7.28-4.881,11.98-4.881c4.026,0,7.329,1.191,9.908,3.575c2.579,2.383,3.869,5.468,3.869,9.255
		c0,0.587-0.044,1.523-0.13,2.808l-0.033,0.195l-0.914,1.339l-20.077,0.555c0.152,1.98,0.979,3.586,2.481,4.815
		c1.501,1.229,3.395,1.844,5.68,1.844c1.61,0,3.4-0.348,5.37-1.044C329.853,180.492,331.926,179.458,334.103,178.087z
		 M314.581,171.134l12.764-0.392v-0.457c0-1.546-0.544-2.813-1.632-3.804c-1.089-0.99-2.46-1.485-4.113-1.485
		c-1.85,0-3.395,0.539-4.636,1.616C315.724,167.689,314.929,169.196,314.581,171.134z"/>
	<path fill="#FFFFFF" d="M358.228,188.599l9.826-48.87h0.816l17.857,30.817l16.845-30.817h0.849l9.892,48.87h-10.74l-4.016-21.611
		l-12.699,23.342h-0.75l-13.646-23.668l-4.146,21.938H358.228z"/>
	<path fill="#FFFFFF" d="M438.86,159.186h10.153v29.413l-9.435,1.403v-5.745c-1.589,1.959-3.254,3.406-4.995,4.342
		s-3.646,1.403-5.713,1.403c-3.112,0-5.479-0.893-7.101-2.677s-2.432-4.396-2.432-7.835v-20.305h10.218v17.433
		c0,1.545,0.315,2.715,0.947,3.509c0.631,0.795,1.566,1.191,2.807,1.191c1.785,0,3.156-0.604,4.113-1.812
		c0.958-1.208,1.437-2.943,1.437-5.207V159.186z"/>
	<path fill="#FFFFFF" d="M456.555,187.26v-8.096c2.589,1.654,4.603,2.77,6.039,3.347c1.437,0.576,2.764,0.864,3.982,0.864
		c1.066,0,1.926-0.233,2.579-0.701s0.979-1.083,0.979-1.845c0-0.653-0.229-1.196-0.686-1.632s-1.24-0.85-2.351-1.241l-3.787-1.338
		c-2.48-0.849-4.363-2.041-5.647-3.575s-1.926-3.346-1.926-5.436c0-2.959,1.033-5.337,3.102-7.133
		c2.066-1.795,4.82-2.693,8.259-2.693c1.589,0,3.27,0.224,5.044,0.67c1.773,0.446,3.748,1.138,5.925,2.072l-1.273,7.149
		c-1.306-1.109-2.731-1.979-4.276-2.611c-1.545-0.631-2.992-0.946-4.342-0.946c-1.001,0-1.817,0.233-2.448,0.701
		c-0.632,0.469-0.946,1.062-0.946,1.779c0,0.609,0.179,1.094,0.538,1.453c0.359,0.358,1.159,0.745,2.399,1.158l3.525,1.273
		c2.764,0.979,4.739,2.166,5.926,3.559c1.186,1.393,1.779,3.21,1.779,5.451c0,3.243-1.067,5.806-3.199,7.688
		c-2.134,1.882-5.039,2.823-8.717,2.823c-1.785,0-3.542-0.223-5.272-0.669C460.031,188.887,458.295,188.196,456.555,187.26z"/>
	<path fill="#FFFFFF" d="M484.27,148.217c0-1.567,0.544-2.895,1.633-3.982c1.088-1.088,2.416-1.633,3.982-1.633
		c1.588,0,2.922,0.539,3.999,1.616s1.616,2.41,1.616,3.999c0,1.566-0.545,2.905-1.633,4.016c-1.088,1.109-2.415,1.664-3.982,1.664
		c-1.523,0-2.84-0.56-3.95-1.681C484.825,151.095,484.27,149.763,484.27,148.217z M495.108,188.599H484.76v-29.413l10.349-1.404
		V188.599z"/>
	<path fill="#FFFFFF" d="M528.471,186.934c-1.807,1.023-3.586,1.779-5.337,2.269c-1.752,0.49-3.554,0.735-5.403,0.735
		c-4.896,0-8.917-1.47-12.062-4.407c-3.146-2.938-4.718-6.66-4.718-11.165c0-4.679,1.692-8.602,5.076-11.769
		c3.385-3.166,7.634-4.75,12.748-4.75c1.872,0,3.7,0.213,5.484,0.637c1.784,0.425,3.504,1.062,5.158,1.91l-1.143,9.141
		c-1.611-0.979-3.162-1.725-4.652-2.236c-1.49-0.511-2.878-0.768-4.162-0.768c-2.307,0-4.223,0.702-5.745,2.105
		c-1.523,1.404-2.285,3.15-2.285,5.24c0,2.22,0.707,4.004,2.122,5.354c1.414,1.35,3.275,2.024,5.582,2.024
		c1.437,0,2.971-0.311,4.604-0.931c1.632-0.62,3.525-1.627,5.68-3.02L528.471,186.934z"/>
	<path fill="#FFFFFF" d="M558.505,192.353c0.282-1.545,0.663-3.09,1.143-4.636c0.479-1.545,1.077-3.122,1.795-4.733
		c-2.721-2.437-4.771-5.207-6.153-8.308c-1.383-3.102-2.073-6.458-2.073-10.071c0-2.785,0.425-5.484,1.273-8.096
		c0.849-2.612,2.089-4.995,3.722-7.149c2.307-3.068,5.125-5.44,8.455-7.117c3.33-1.675,6.888-2.514,10.675-2.514
		c2.698,0,5.294,0.431,7.786,1.29c2.491,0.86,4.804,2.128,6.937,3.803c3.025,2.373,5.349,5.289,6.97,8.749
		c1.621,3.461,2.433,7.247,2.433,11.36c0,3.265-0.632,6.41-1.894,9.435c-1.263,3.025-3.036,5.647-5.321,7.867
		c-2.046,2.046-4.369,3.63-6.97,4.75c-2.601,1.121-5.196,1.682-7.786,1.682c-1.109,0-3.003-0.283-5.68-0.849l-0.065-0.033
		l-0.098,0.686c1.479,0.327,4.766,1.35,9.858,3.069c5.093,1.719,9.456,2.677,13.091,2.872l-2.742,8.488
		c-4.026-0.306-9.631-1.991-16.813-5.061c-0.936-0.392-1.644-0.686-2.122-0.881l-0.392-0.163
		C568.374,194.181,563.031,192.701,558.505,192.353z M564.838,164.931c0,4.113,1.202,7.558,3.607,10.332
		c2.404,2.775,5.37,4.163,8.896,4.163c3.547,0,6.518-1.382,8.912-4.146c2.394-2.764,3.591-6.213,3.591-10.349
		c0-4.156-1.197-7.622-3.591-10.397c-2.395-2.774-5.365-4.162-8.912-4.162c-3.525,0-6.491,1.388-8.896,4.162
		C566.04,157.309,564.838,160.774,564.838,164.931z"/>
	<path fill="#FFFFFF" d="M627.026,159.186h10.153v29.413l-9.435,1.403v-5.745c-1.589,1.959-3.254,3.406-4.995,4.342
		s-3.646,1.403-5.713,1.403c-3.112,0-5.479-0.893-7.1-2.677c-1.622-1.784-2.433-4.396-2.433-7.835v-20.305h10.218v17.433
		c0,1.545,0.315,2.715,0.947,3.509c0.631,0.795,1.566,1.191,2.807,1.191c1.785,0,3.156-0.604,4.113-1.812
		c0.958-1.208,1.437-2.943,1.437-5.207V159.186z"/>
	<path fill="#FFFFFF" d="M644.1,148.217c0-1.567,0.544-2.895,1.633-3.982c1.088-1.088,2.416-1.633,3.982-1.633
		c1.588,0,2.922,0.539,3.999,1.616s1.616,2.41,1.616,3.999c0,1.566-0.545,2.905-1.633,4.016c-1.088,1.109-2.415,1.664-3.982,1.664
		c-1.523,0-2.84-0.56-3.95-1.681C644.655,151.095,644.1,149.763,644.1,148.217z M654.938,188.599H644.59v-29.413l10.349-1.404
		V188.599z"/>
	<path fill="#FFFFFF" d="M658.496,188.599l13.156-21.677h-11.36l1.796-7.736h25.822l-13.156,21.644h12.764l-1.207,7.77H658.496z"/>
</g>
</svg>
